<mxfile host="app.diagrams.net" modified="2023-03-23T15:48:44.261Z" agent="5.0 (Windows)" etag="xqSm0oUybaoHhR_h8H3q" version="21.0.10" type="github">
  <diagram name="Strona-1" id="zO4aLreBnu-5wffehiXX">
    <mxGraphModel dx="1434" dy="782" grid="1" gridSize="10" guides="1" tooltips="1" connect="1" arrows="1" fold="1" page="1" pageScale="1" pageWidth="827" pageHeight="1169" math="0" shadow="0">
      <root>
        <mxCell id="0" />
        <mxCell id="1" parent="0" />
        <mxCell id="MqxHASbf3Gj7sHZo25PB-3" style="edgeStyle=orthogonalEdgeStyle;rounded=0;orthogonalLoop=1;jettySize=auto;html=1;exitX=0.5;exitY=1;exitDx=0;exitDy=0;entryX=0.5;entryY=0;entryDx=0;entryDy=0;" edge="1" parent="1" source="MqxHASbf3Gj7sHZo25PB-1" target="MqxHASbf3Gj7sHZo25PB-2">
          <mxGeometry relative="1" as="geometry" />
        </mxCell>
        <mxCell id="MqxHASbf3Gj7sHZo25PB-1" value="Start" style="ellipse;whiteSpace=wrap;html=1;" vertex="1" parent="1">
          <mxGeometry x="340" y="90" width="150" height="100" as="geometry" />
        </mxCell>
        <mxCell id="MqxHASbf3Gj7sHZo25PB-4" style="edgeStyle=orthogonalEdgeStyle;rounded=0;orthogonalLoop=1;jettySize=auto;html=1;exitX=0.5;exitY=1;exitDx=0;exitDy=0;" edge="1" parent="1" source="MqxHASbf3Gj7sHZo25PB-2">
          <mxGeometry relative="1" as="geometry">
            <mxPoint x="414" y="330" as="targetPoint" />
          </mxGeometry>
        </mxCell>
        <mxCell id="MqxHASbf3Gj7sHZo25PB-2" value="&lt;div&gt;&amp;nbsp;podaj a []&lt;/div&gt;&lt;div&gt;i = 0&lt;/div&gt;&lt;div&gt;zmiana = 1&lt;br&gt;&lt;/div&gt;" style="rounded=0;whiteSpace=wrap;html=1;" vertex="1" parent="1">
          <mxGeometry x="334" y="220" width="160" height="80" as="geometry" />
        </mxCell>
        <mxCell id="MqxHASbf3Gj7sHZo25PB-28" style="edgeStyle=orthogonalEdgeStyle;rounded=0;orthogonalLoop=1;jettySize=auto;html=1;exitX=1;exitY=0.5;exitDx=0;exitDy=0;" edge="1" parent="1" source="MqxHASbf3Gj7sHZo25PB-27">
          <mxGeometry relative="1" as="geometry">
            <mxPoint x="540" y="370" as="targetPoint" />
          </mxGeometry>
        </mxCell>
        <mxCell id="MqxHASbf3Gj7sHZo25PB-31" style="edgeStyle=orthogonalEdgeStyle;rounded=0;orthogonalLoop=1;jettySize=auto;html=1;exitX=0;exitY=0.5;exitDx=0;exitDy=0;" edge="1" parent="1" source="MqxHASbf3Gj7sHZo25PB-27">
          <mxGeometry relative="1" as="geometry">
            <mxPoint x="340" y="370" as="targetPoint" />
          </mxGeometry>
        </mxCell>
        <mxCell id="MqxHASbf3Gj7sHZo25PB-27" value="zmiana = 1" style="rhombus;whiteSpace=wrap;html=1;" vertex="1" parent="1">
          <mxGeometry x="374" y="330" width="80" height="80" as="geometry" />
        </mxCell>
        <mxCell id="MqxHASbf3Gj7sHZo25PB-29" value="Nie" style="text;html=1;align=center;verticalAlign=middle;resizable=0;points=[];autosize=1;strokeColor=none;fillColor=none;" vertex="1" parent="1">
          <mxGeometry x="470" y="335" width="40" height="30" as="geometry" />
        </mxCell>
        <mxCell id="MqxHASbf3Gj7sHZo25PB-30" value="Stop" style="ellipse;whiteSpace=wrap;html=1;" vertex="1" parent="1">
          <mxGeometry x="540" y="330" width="120" height="80" as="geometry" />
        </mxCell>
        <mxCell id="MqxHASbf3Gj7sHZo25PB-33" style="edgeStyle=orthogonalEdgeStyle;rounded=0;orthogonalLoop=1;jettySize=auto;html=1;exitX=0.5;exitY=1;exitDx=0;exitDy=0;" edge="1" parent="1" source="MqxHASbf3Gj7sHZo25PB-32">
          <mxGeometry relative="1" as="geometry">
            <mxPoint x="280" y="430" as="targetPoint" />
          </mxGeometry>
        </mxCell>
        <mxCell id="MqxHASbf3Gj7sHZo25PB-32" value="zmiana = 0" style="rounded=0;whiteSpace=wrap;html=1;" vertex="1" parent="1">
          <mxGeometry x="220" y="340" width="120" height="60" as="geometry" />
        </mxCell>
        <mxCell id="MqxHASbf3Gj7sHZo25PB-35" style="edgeStyle=orthogonalEdgeStyle;rounded=0;orthogonalLoop=1;jettySize=auto;html=1;exitX=0;exitY=0.5;exitDx=0;exitDy=0;entryX=0.5;entryY=0;entryDx=0;entryDy=0;" edge="1" parent="1" source="MqxHASbf3Gj7sHZo25PB-34" target="MqxHASbf3Gj7sHZo25PB-27">
          <mxGeometry relative="1" as="geometry">
            <Array as="points">
              <mxPoint x="160" y="470" />
              <mxPoint x="160" y="310" />
              <mxPoint x="414" y="310" />
            </Array>
          </mxGeometry>
        </mxCell>
        <mxCell id="MqxHASbf3Gj7sHZo25PB-38" style="edgeStyle=orthogonalEdgeStyle;rounded=0;orthogonalLoop=1;jettySize=auto;html=1;exitX=1;exitY=0.5;exitDx=0;exitDy=0;" edge="1" parent="1" source="MqxHASbf3Gj7sHZo25PB-34">
          <mxGeometry relative="1" as="geometry">
            <mxPoint x="370" y="520" as="targetPoint" />
          </mxGeometry>
        </mxCell>
        <mxCell id="MqxHASbf3Gj7sHZo25PB-34" value="i &amp;lt; a dl" style="rhombus;whiteSpace=wrap;html=1;" vertex="1" parent="1">
          <mxGeometry x="240" y="430" width="80" height="80" as="geometry" />
        </mxCell>
        <mxCell id="MqxHASbf3Gj7sHZo25PB-36" value="Nie" style="text;html=1;align=center;verticalAlign=middle;resizable=0;points=[];autosize=1;strokeColor=none;fillColor=none;" vertex="1" parent="1">
          <mxGeometry x="200" y="435" width="40" height="30" as="geometry" />
        </mxCell>
        <mxCell id="MqxHASbf3Gj7sHZo25PB-37" value="TAK" style="text;html=1;align=center;verticalAlign=middle;resizable=0;points=[];autosize=1;strokeColor=none;fillColor=none;" vertex="1" parent="1">
          <mxGeometry x="340" y="345" width="40" height="30" as="geometry" />
        </mxCell>
        <mxCell id="MqxHASbf3Gj7sHZo25PB-39" value="TAK" style="text;html=1;align=center;verticalAlign=middle;resizable=0;points=[];autosize=1;strokeColor=none;fillColor=none;" vertex="1" parent="1">
          <mxGeometry x="320" y="445" width="40" height="30" as="geometry" />
        </mxCell>
        <mxCell id="MqxHASbf3Gj7sHZo25PB-41" style="edgeStyle=orthogonalEdgeStyle;rounded=0;orthogonalLoop=1;jettySize=auto;html=1;exitX=1;exitY=0.5;exitDx=0;exitDy=0;" edge="1" parent="1" source="MqxHASbf3Gj7sHZo25PB-40">
          <mxGeometry relative="1" as="geometry">
            <mxPoint x="480" y="560" as="targetPoint" />
          </mxGeometry>
        </mxCell>
        <mxCell id="MqxHASbf3Gj7sHZo25PB-44" style="edgeStyle=orthogonalEdgeStyle;rounded=0;orthogonalLoop=1;jettySize=auto;html=1;exitX=0.5;exitY=1;exitDx=0;exitDy=0;" edge="1" parent="1" source="MqxHASbf3Gj7sHZo25PB-40">
          <mxGeometry relative="1" as="geometry">
            <mxPoint x="370" y="620" as="targetPoint" />
          </mxGeometry>
        </mxCell>
        <mxCell id="MqxHASbf3Gj7sHZo25PB-40" value="&amp;nbsp;a [i] &amp;gt; a [i+1]" style="rhombus;whiteSpace=wrap;html=1;" vertex="1" parent="1">
          <mxGeometry x="300" y="520" width="140" height="80" as="geometry" />
        </mxCell>
        <mxCell id="MqxHASbf3Gj7sHZo25PB-42" value="Tak" style="text;html=1;align=center;verticalAlign=middle;resizable=0;points=[];autosize=1;strokeColor=none;fillColor=none;" vertex="1" parent="1">
          <mxGeometry x="440" y="530" width="40" height="30" as="geometry" />
        </mxCell>
        <mxCell id="MqxHASbf3Gj7sHZo25PB-48" style="edgeStyle=orthogonalEdgeStyle;rounded=0;orthogonalLoop=1;jettySize=auto;html=1;exitX=0.5;exitY=1;exitDx=0;exitDy=0;entryX=1;entryY=0.5;entryDx=0;entryDy=0;" edge="1" parent="1" source="MqxHASbf3Gj7sHZo25PB-43" target="MqxHASbf3Gj7sHZo25PB-45">
          <mxGeometry relative="1" as="geometry" />
        </mxCell>
        <mxCell id="MqxHASbf3Gj7sHZo25PB-43" value="&lt;div&gt;c = a [i]&lt;/div&gt;&lt;div&gt;a[i]=a[i+1]&lt;/div&gt;&lt;div&gt;a [i+1] = c&lt;/div&gt;&lt;div&gt;zmiana = 1&lt;br&gt;&lt;/div&gt;" style="rounded=0;whiteSpace=wrap;html=1;" vertex="1" parent="1">
          <mxGeometry x="480" y="530" width="120" height="80" as="geometry" />
        </mxCell>
        <mxCell id="MqxHASbf3Gj7sHZo25PB-46" style="edgeStyle=orthogonalEdgeStyle;rounded=0;orthogonalLoop=1;jettySize=auto;html=1;exitX=0;exitY=0.5;exitDx=0;exitDy=0;entryX=0.5;entryY=1;entryDx=0;entryDy=0;" edge="1" parent="1" source="MqxHASbf3Gj7sHZo25PB-45" target="MqxHASbf3Gj7sHZo25PB-34">
          <mxGeometry relative="1" as="geometry" />
        </mxCell>
        <mxCell id="MqxHASbf3Gj7sHZo25PB-45" value="i = i +1" style="rounded=0;whiteSpace=wrap;html=1;" vertex="1" parent="1">
          <mxGeometry x="310" y="620" width="120" height="60" as="geometry" />
        </mxCell>
        <mxCell id="MqxHASbf3Gj7sHZo25PB-47" value="Nie" style="text;html=1;align=center;verticalAlign=middle;resizable=0;points=[];autosize=1;strokeColor=none;fillColor=none;" vertex="1" parent="1">
          <mxGeometry x="380" y="585" width="40" height="30" as="geometry" />
        </mxCell>
      </root>
    </mxGraphModel>
  </diagram>
</mxfile>
